# xmcd CD database file generated by LOLA_Freedb v0.9beta0
# 
# Track frame offsets:
#      150
#      14735
#      26965
#      38447
#      49824
#      64433
#      80283
#      94261
#      110408
#      125763
#      139586
#      154442
# 
# Disc length: 2219 seconds
# 
# Revision: 0 
# Processed by: cddbd v1.5.2PL0 Copyright (c) Steve Scherf et al.
# Submitted via: LOLA_Freedb v0.9beta0
# 
DISCID=a908a90c
DTITLE=Heather Myles - In The Wind
DYEAR=2009
DGENRE=Country
TTITLE0=Heather Myles - When Did Stop Loving Me
TTITLE1=Heather Myles - Broke And Broken Hearted
TTITLE2=Heather Myles - Shoulder To Cry On
TTITLE3=Heather Myles (duet with Willie Nelson) - Don't Call Me
TTITLE4=Heather Myles - Pretty Poison
TTITLE5=Heather Myles - Mama's A Star
TTITLE6=Heather Myles - Smokin', Drinkin', Dancin' Again
TTITLE7=Heather Myles - Vaya Condios
TTITLE8=Heather Myles - In The Wind
TTITLE9=Heather Myles - Walk On By
TTITLE10=Heather Myles - Right Or Wrong
TTITLE11=Heather Myles - My Baby's Good To Me
EXTD=
EXTT0=
EXTT1=
EXTT2=
EXTT3=
EXTT4=
EXTT5=
EXTT6=
EXTT7=
EXTT8=
EXTT9=
EXTT10=
EXTT11=
PLAYORDER=
